<mxfile host="app.diagrams.net" modified="2022-04-20T09:05:00.246Z" agent="5.0 (X11)" etag="59t0n8PDwOrpr2eBl1gr" version="16.6.5" type="github">
  <diagram id="TIo3-JE8RYAdE-eYKafk" name="Page-1">
    <mxGraphModel dx="746" dy="400" grid="1" gridSize="10" guides="1" tooltips="1" connect="1" arrows="1" fold="1" page="1" pageScale="1" pageWidth="850" pageHeight="1100" math="0" shadow="0">
      <root>
        <mxCell id="0" />
        <mxCell id="1" parent="0" />
        <mxCell id="6OfOJ0zayBAvBgIOVWfl-1" value="Pre-trained&lt;br&gt;model" style="rounded=1;whiteSpace=wrap;html=1;" vertex="1" parent="1">
          <mxGeometry x="340" y="60" width="90" height="40" as="geometry" />
        </mxCell>
        <mxCell id="6OfOJ0zayBAvBgIOVWfl-2" value="&quot;I do not hate him&quot; Is this sentence positive?" style="text;html=1;strokeColor=none;fillColor=none;align=center;verticalAlign=middle;whiteSpace=wrap;rounded=0;" vertex="1" parent="1">
          <mxGeometry x="30" y="40" width="240" height="30" as="geometry" />
        </mxCell>
        <mxCell id="6OfOJ0zayBAvBgIOVWfl-3" value="&quot;I do not hate him&quot; Is this sentence negative?" style="text;html=1;strokeColor=none;fillColor=none;align=center;verticalAlign=middle;whiteSpace=wrap;rounded=0;" vertex="1" parent="1">
          <mxGeometry x="20" y="90" width="250" height="30" as="geometry" />
        </mxCell>
        <mxCell id="6OfOJ0zayBAvBgIOVWfl-4" value="" style="endArrow=classic;html=1;rounded=0;" edge="1" parent="1" source="6OfOJ0zayBAvBgIOVWfl-2" target="6OfOJ0zayBAvBgIOVWfl-1">
          <mxGeometry width="50" height="50" relative="1" as="geometry">
            <mxPoint x="280" y="240" as="sourcePoint" />
            <mxPoint x="330" y="190" as="targetPoint" />
          </mxGeometry>
        </mxCell>
        <mxCell id="6OfOJ0zayBAvBgIOVWfl-5" value="" style="endArrow=classic;html=1;rounded=0;" edge="1" parent="1" source="6OfOJ0zayBAvBgIOVWfl-3" target="6OfOJ0zayBAvBgIOVWfl-1">
          <mxGeometry width="50" height="50" relative="1" as="geometry">
            <mxPoint x="280" y="240" as="sourcePoint" />
            <mxPoint x="330" y="190" as="targetPoint" />
          </mxGeometry>
        </mxCell>
        <mxCell id="6OfOJ0zayBAvBgIOVWfl-6" value="Yes" style="text;html=1;strokeColor=none;fillColor=none;align=center;verticalAlign=middle;whiteSpace=wrap;rounded=0;" vertex="1" parent="1">
          <mxGeometry x="480" y="30" width="60" height="30" as="geometry" />
        </mxCell>
        <mxCell id="6OfOJ0zayBAvBgIOVWfl-7" value="No" style="text;html=1;strokeColor=none;fillColor=none;align=center;verticalAlign=middle;whiteSpace=wrap;rounded=0;" vertex="1" parent="1">
          <mxGeometry x="480" y="90" width="60" height="30" as="geometry" />
        </mxCell>
        <mxCell id="6OfOJ0zayBAvBgIOVWfl-8" value="" style="endArrow=classic;html=1;rounded=0;" edge="1" parent="1" source="6OfOJ0zayBAvBgIOVWfl-1" target="6OfOJ0zayBAvBgIOVWfl-6">
          <mxGeometry width="50" height="50" relative="1" as="geometry">
            <mxPoint x="280" y="240" as="sourcePoint" />
            <mxPoint x="330" y="190" as="targetPoint" />
          </mxGeometry>
        </mxCell>
        <mxCell id="6OfOJ0zayBAvBgIOVWfl-9" value="" style="endArrow=classic;html=1;rounded=0;" edge="1" parent="1" source="6OfOJ0zayBAvBgIOVWfl-1" target="6OfOJ0zayBAvBgIOVWfl-7">
          <mxGeometry width="50" height="50" relative="1" as="geometry">
            <mxPoint x="280" y="240" as="sourcePoint" />
            <mxPoint x="330" y="190" as="targetPoint" />
          </mxGeometry>
        </mxCell>
      </root>
    </mxGraphModel>
  </diagram>
</mxfile>
